<?xml version="1.0" encoding="UTF-8" standalone="yes"?>
<!DOCTYPE svg PUBLIC "-//W3C//DTD SVG 1.1//EN" "http://www.w3.org/Graphics/SVG/1.1/DTD/svg11.dtd">

<svg width="1440" height="781" viewBox="0 0 1440 781" xmlns="http://www.w3.org/2000/svg" xmlns:xlink="http://www.w3.org/1999/xlink" version="1.1" baseProfile="full">
    <g transform="scale(1,-1) translate(0,-781)">
        <path d="M 73.021710 86.274671 L 87.299142 86.274671 Q 86.981865 95.931496 83.729784 102.887683 Q 80.477702 109.843870 74.846049 114.426770 Q 69.214395 119.009670 61.758403 121.137445 Q 54.302411 123.265220 45.577314 123.265220 Q 37.804046 123.265220 30.427373 121.219282 Q 23.050700 119.173345 17.260408 114.999633 Q 11.470116 110.825920 7.980078 104.360758 Q 4.490039 97.895596 4.490039 89.057146 Q 4.490039 81.037072 7.583482 75.717634 Q 10.676926 70.398197 15.832665 67.042860 Q 20.988404 63.687522 27.492567 61.641585 Q 33.996731 59.595648 40.738851 58.040735 Q 47.480971 56.485823 53.985135 55.012748 Q 60.489298 53.539673 65.645037 51.166385 Q 70.800776 48.793098 73.894220 45.028573 Q 76.987663 41.264048 76.987663 35.208074 Q 76.987663 28.824749 74.449453 24.732874 Q 71.911243 20.640999 67.786652 18.267712 Q 63.662061 15.894424 58.506321 14.912374 Q 53.350582 13.930324 48.274162 13.930324 Q 41.928637 13.930324 35.900388 15.567074 Q 29.872139 17.203824 25.350953 20.640999 Q 20.829766 24.078174 18.053599 29.397611 Q 15.277432 34.717049 15.277432 42.082423 L 1.000000 42.082423 Q 1.000000 31.443549 4.727996 23.668987 Q 8.455992 15.894424 14.880836 10.902337 Q 21.305680 5.910250 29.792820 3.455125 Q 38.279960 1.000000 47.798248 1.000000 Q 55.571516 1.000000 63.424103 2.882262 Q 71.276691 4.764525 77.622216 8.938237 Q 83.967741 13.111949 88.013013 19.740787 Q 92.058285 26.369624 92.058285 35.699099 Q 92.058285 44.373873 88.964842 50.102498 Q 85.871398 55.831123 80.715659 59.595648 Q 75.559920 63.360172 69.055757 65.569785 Q 62.551594 67.779397 55.809473 69.416147 Q 49.067353 71.052897 42.563190 72.444135 Q 36.059026 73.835372 30.903287 75.963147 Q 25.747548 78.090922 22.654104 81.446259 Q 19.560661 84.801596 19.560661 90.202871 Q 19.560661 95.931496 21.702276 99.777858 Q 23.843890 103.624221 27.413248 105.915671 Q 30.982606 108.207121 35.583112 109.189170 Q 40.183618 110.171220 44.942761 110.171220 Q 56.681983 110.171220 64.217294 104.524433 Q 71.752605 98.877646 73.021710 86.274671 Z M 136.001047 107.388746 L 136.001047 3.618800 L 151.071669 3.618800 L 151.071669 107.388746 L 188.827543 107.388746 L 188.827543 120.482745 L 98.245172 120.482745 L 98.245172 107.388746 Z M 201.359956 120.482745 L 201.359956 3.618800 L 280.044467 3.618800 L 280.044467 16.712799 L 216.430578 16.712799 L 216.430578 57.140523 L 275.285323 57.140523 L 275.285323 70.234522 L 216.430578 70.234522 L 216.430578 107.388746 L 279.568553 107.388746 L 279.568553 120.482745 Z M 298.605128 120.482745 L 298.605128 3.618800 L 312.882559 3.618800 L 312.882559 100.841746 L 313.199836 100.841746 L 348.576138 3.618800 L 361.425827 3.618800 L 396.802129 100.841746 L 397.119405 100.841746 L 397.119405 3.618800 L 411.396837 3.618800 L 411.396837 120.482745 L 390.773880 120.482745 L 354.921663 22.277749 L 319.228085 120.482745 Z M 501.979208 86.274671 L 516.256639 86.274671 Q 515.939363 95.931496 512.687282 102.887683 Q 509.435200 109.843870 503.803546 114.426770 Q 498.171893 119.009670 490.715901 121.137445 Q 483.259909 123.265220 474.534812 123.265220 Q 466.761544 123.265220 459.384871 121.219282 Q 452.008198 119.173345 446.217906 114.999633 Q 440.427614 110.825920 436.937575 104.360758 Q 433.447537 97.895596 433.447537 89.057146 Q 433.447537 81.037072 436.540980 75.717634 Q 439.634424 70.398197 444.790163 67.042860 Q 449.945902 63.687522 456.450065 61.641585 Q 462.954228 59.595648 469.696349 58.040735 Q 476.438469 56.485823 482.942633 55.012748 Q 489.446796 53.539673 494.602535 51.166385 Q 499.758274 48.793098 502.851718 45.028573 Q 505.945161 41.264048 505.945161 35.208074 Q 505.945161 28.824749 503.406951 24.732874 Q 500.868741 20.640999 496.744150 18.267712 Q 492.619558 15.894424 487.463819 14.912374 Q 482.308080 13.930324 477.231660 13.930324 Q 470.886135 13.930324 464.857886 15.567074 Q 458.829637 17.203824 454.308450 20.640999 Q 449.787264 24.078174 447.011097 29.397611 Q 444.234929 34.717049 444.234929 42.082423 L 429.957498 42.082423 Q 429.957498 31.443549 433.685494 23.668987 Q 437.413490 15.894424 443.838334 10.902337 Q 450.263178 5.910250 458.750318 3.455125 Q 467.237458 1.000000 476.755746 1.000000 Q 484.529014 1.000000 492.381601 2.882262 Q 500.234189 4.764525 506.579714 8.938237 Q 512.925239 13.111949 516.970511 19.740787 Q 521.015783 26.369624 521.015783 35.699099 Q 521.015783 44.373873 517.922340 50.102498 Q 514.828896 55.831123 509.673157 59.595648 Q 504.517418 63.360172 498.013255 65.569785 Q 491.509091 67.779397 484.766971 69.416147 Q 478.024851 71.052897 471.520687 72.444135 Q 465.016524 73.835372 459.860785 75.963147 Q 454.705046 78.090922 451.611602 81.446259 Q 448.518159 84.801596 448.518159 90.202871 Q 448.518159 95.931496 450.659774 99.777858 Q 452.801388 103.624221 456.370746 105.915671 Q 459.940104 108.207121 464.540610 109.189170 Q 469.141115 110.171220 473.900259 110.171220 Q 485.639481 110.171220 493.174792 104.524433 Q 500.710103 98.877646 501.979208 86.274671 Z" transform="scale(1.000000,1.000000) translate(385.315245,264.349009)" fill="#ff8736" opacity="1.000000"></path>
        <path d="M 42.737475 21.868737 C 42.737475 33.394223 33.394223 42.737475 21.868737 42.737475 C 10.343252 42.737475 1.000000 33.394223 1.000000 21.868737 C 1.000000 10.343252 10.343252 1.000000 21.868737 1.000000 C 33.394223 1.000000 42.737475 10.343252 42.737475 21.868737 Z" transform="scale(1.000000,1.000000) translate(540.715807,422.957164)" fill="#ffa663" opacity="1.000000"></path>
        <path d="M 23.979960 11.047094 C 23.979960 16.595951 18.835721 21.094188 12.489980 21.094188 C 6.144239 21.094188 1.000000 16.595951 1.000000 11.047094 C 1.000000 5.498237 6.144239 1.000000 12.489980 1.000000 C 18.835721 1.000000 23.979960 5.498237 23.979960 11.047094 Z" transform="scale(1.000000,1.000000) translate(582.453282,477.680611)" fill="#ff8254" opacity="1.000000"></path>
        <path d="M 23.979960 11.047094 C 23.979960 16.595951 18.835721 21.094188 12.489980 21.094188 C 6.144239 21.094188 1.000000 16.595951 1.000000 11.047094 C 1.000000 5.498237 6.144239 1.000000 12.489980 1.000000 C 18.835721 1.000000 23.979960 5.498237 23.979960 11.047094 Z" transform="scale(1.000000,1.000000) translate(739.868737,480.142786)" fill="#ff8254" opacity="1.000000"></path>
        <path d="M 23.979960 11.047094 C 23.979960 16.595951 18.835721 21.094188 12.489980 21.094188 C 6.144239 21.094188 1.000000 16.595951 1.000000 11.047094 C 1.000000 5.498237 6.144239 1.000000 12.489980 1.000000 C 18.835721 1.000000 23.979960 5.498237 23.979960 11.047094 Z" transform="scale(1.000000,1.000000) translate(739.868737,512.986974)" fill="#ff8254" opacity="1.000000"></path>
        <path d="M 23.979960 11.047094 C 23.979960 16.595951 18.835721 21.094188 12.489980 21.094188 C 6.144239 21.094188 1.000000 16.595951 1.000000 11.047094 C 1.000000 5.498237 6.144239 1.000000 12.489980 1.000000 C 18.835721 1.000000 23.979960 5.498237 23.979960 11.047094 Z" transform="scale(1.000000,1.000000) translate(739.868737,545.831163)" fill="#ff8254" opacity="1.000000"></path>
        <path d="M 23.979960 11.047094 C 23.979960 16.595951 18.835721 21.094188 12.489980 21.094188 C 6.144239 21.094188 1.000000 16.595951 1.000000 11.047094 C 1.000000 5.498237 6.144239 1.000000 12.489980 1.000000 C 18.835721 1.000000 23.979960 5.498237 23.979960 11.047094 Z" transform="scale(1.000000,1.000000) translate(582.453282,543.848989)" fill="#ff8254" opacity="1.000000"></path>
        <path d="M 23.979960 11.047094 C 23.979960 16.595951 18.835721 21.094188 12.489980 21.094188 C 6.144239 21.094188 1.000000 16.595951 1.000000 11.047094 C 1.000000 5.498237 6.144239 1.000000 12.489980 1.000000 C 18.835721 1.000000 23.979960 5.498237 23.979960 11.047094 Z" transform="scale(1.000000,1.000000) translate(582.453282,576.933177)" fill="#ff6626" opacity="1.000000"></path>
        <path d="M 23.979960 11.047094 C 23.979960 16.595951 18.835721 21.094188 12.489980 21.094188 C 6.144239 21.094188 1.000000 16.595951 1.000000 11.047094 C 1.000000 5.498237 6.144239 1.000000 12.489980 1.000000 C 18.835721 1.000000 23.979960 5.498237 23.979960 11.047094 Z" transform="scale(1.000000,1.000000) translate(582.453282,610.017365)" fill="#cf531f" opacity="1.000000"></path>
        <path d="M 23.979960 11.047094 C 23.979960 16.595951 18.835721 21.094188 12.489980 21.094188 C 6.144239 21.094188 1.000000 16.595951 1.000000 11.047094 C 1.000000 5.498237 6.144239 1.000000 12.489980 1.000000 C 18.835721 1.000000 23.979960 5.498237 23.979960 11.047094 Z" transform="scale(1.000000,1.000000) translate(623.798859,610.017365)" fill="#cf531f" opacity="1.000000"></path>
        <path d="M 23.979960 11.047094 C 23.979960 16.595951 18.835721 21.094188 12.489980 21.094188 C 6.144239 21.094188 1.000000 16.595951 1.000000 11.047094 C 1.000000 5.498237 6.144239 1.000000 12.489980 1.000000 C 18.835721 1.000000 23.979960 5.498237 23.979960 11.047094 Z" transform="scale(1.000000,1.000000) translate(662.488818,610.017365)" fill="#cf531f" opacity="1.000000"></path>
        <path d="M 23.979960 11.047094 C 23.979960 16.595951 18.835721 21.094188 12.489980 21.094188 C 6.144239 21.094188 1.000000 16.595951 1.000000 11.047094 C 1.000000 5.498237 6.144239 1.000000 12.489980 1.000000 C 18.835721 1.000000 23.979960 5.498237 23.979960 11.047094 Z" transform="scale(1.000000,1.000000) translate(701.178778,610.017365)" fill="#cf531f" opacity="1.000000"></path>
        <path d="M 23.979960 11.047094 C 23.979960 16.595951 18.835721 21.094188 12.489980 21.094188 C 6.144239 21.094188 1.000000 16.595951 1.000000 11.047094 C 1.000000 5.498237 6.144239 1.000000 12.489980 1.000000 C 18.835721 1.000000 23.979960 5.498237 23.979960 11.047094 Z" transform="scale(1.000000,1.000000) translate(739.868737,610.017365)" fill="#cf531f" opacity="1.000000"></path>
        <path d="M 23.979960 11.047094 C 23.979960 16.595951 18.835721 21.094188 12.489980 21.094188 C 6.144239 21.094188 1.000000 16.595951 1.000000 11.047094 C 1.000000 5.498237 6.144239 1.000000 12.489980 1.000000 C 18.835721 1.000000 23.979960 5.498237 23.979960 11.047094 Z" transform="scale(1.000000,1.000000) translate(623.798859,576.933177)" fill="#ff6626" opacity="1.000000"></path>
        <path d="M 23.979960 11.047094 C 23.979960 16.595951 18.835721 21.094188 12.489980 21.094188 C 6.144239 21.094188 1.000000 16.595951 1.000000 11.047094 C 1.000000 5.498237 6.144239 1.000000 12.489980 1.000000 C 18.835721 1.000000 23.979960 5.498237 23.979960 11.047094 Z" transform="scale(1.000000,1.000000) translate(662.488818,576.933177)" fill="#ff6626" opacity="1.000000"></path>
        <path d="M 23.979960 11.047094 C 23.979960 16.595951 18.835721 21.094188 12.489980 21.094188 C 6.144239 21.094188 1.000000 16.595951 1.000000 11.047094 C 1.000000 5.498237 6.144239 1.000000 12.489980 1.000000 C 18.835721 1.000000 23.979960 5.498237 23.979960 11.047094 Z" transform="scale(1.000000,1.000000) translate(701.178778,576.933177)" fill="#ff6626" opacity="1.000000"></path>
        <path d="M 23.979960 11.047094 C 23.979960 16.595951 18.835721 21.094188 12.489980 21.094188 C 6.144239 21.094188 1.000000 16.595951 1.000000 11.047094 C 1.000000 5.498237 6.144239 1.000000 12.489980 1.000000 C 18.835721 1.000000 23.979960 5.498237 23.979960 11.047094 Z" transform="scale(1.000000,1.000000) translate(739.868737,576.933177)" fill="#ff6626" opacity="1.000000"></path>
        <path d="M 23.979960 11.047094 C 23.979960 16.595951 18.835721 21.094188 12.489980 21.094188 C 6.144239 21.094188 1.000000 16.595951 1.000000 11.047094 C 1.000000 5.498237 6.144239 1.000000 12.489980 1.000000 C 18.835721 1.000000 23.979960 5.498237 23.979960 11.047094 Z" transform="scale(1.000000,1.000000) translate(582.453282,510.764800)" fill="#ff8254" opacity="1.000000"></path>
        <path d="M 42.737475 21.868737 C 42.737475 33.394223 33.394223 42.737475 21.868737 42.737475 C 10.343252 42.737475 1.000000 33.394223 1.000000 21.868737 C 1.000000 10.343252 10.343252 1.000000 21.868737 1.000000 C 33.394223 1.000000 42.737475 10.343252 42.737475 21.868737 Z" transform="scale(1.000000,1.000000) translate(698.131263,425.656939)" fill="#ffa663" opacity="1.000000"></path>
    </g>
</svg>